M48
; DRILL file {KiCad 9.0.6} date 2026-01-12T21:07:35-0500
; FORMAT={-:-/ absolute / inch / decimal}
; #@! TF.CreationDate,2026-01-12T21:07:35-05:00
; #@! TF.GenerationSoftware,Kicad,Pcbnew,9.0.6
; #@! TF.FileFunction,NonPlated,1,2,NPTH
FMAT,2
INCH
; #@! TA.AperFunction,NonPlated,NPTH,ComponentDrill
T1C0.0669
; #@! TA.AperFunction,NonPlated,NPTH,ComponentDrill
T2C0.1575
%
G90
G05
T1
X6.9959Y-3.1811
X6.9959Y-3.9311
X6.9959Y-4.6811
X6.996Y-5.4311
X7.3959Y-3.1811
X7.3959Y-3.9311
X7.3959Y-4.6811
X7.396Y-5.4311
X7.7459Y-3.1811
X7.7459Y-3.9311
X7.7459Y-4.6811
X7.746Y-5.4311
X8.1459Y-3.1811
X8.1459Y-3.9311
X8.1459Y-4.6811
X8.146Y-5.4311
X8.4959Y-3.1811
X8.4959Y-3.9311
X8.4959Y-4.6811
X8.496Y-5.4311
X8.8959Y-3.1811
X8.8959Y-3.9311
X8.8959Y-4.6811
X8.896Y-5.4311
T2
X7.1959Y-3.1811
X7.1959Y-3.9311
X7.1959Y-4.6811
X7.196Y-5.4311
X7.9459Y-3.1811
X7.9459Y-3.9311
X7.9459Y-4.6811
X7.946Y-5.4311
X8.6959Y-3.1811
X8.6959Y-3.9311
X8.6959Y-4.6811
X8.696Y-5.4311
M30
