M48
; DRILL file {KiCad 9.0.6} date 2026-01-12T21:07:35-0500
; FORMAT={-:-/ absolute / inch / decimal}
; #@! TF.CreationDate,2026-01-12T21:07:35-05:00
; #@! TF.GenerationSoftware,Kicad,Pcbnew,9.0.6
; #@! TF.FileFunction,Plated,1,2,PTH
FMAT,2
INCH
; #@! TA.AperFunction,Plated,PTH,ViaDrill
T1C0.0118
; #@! TA.AperFunction,Plated,PTH,ComponentDrill
T2C0.0315
; #@! TA.AperFunction,Plated,PTH,ComponentDrill
T3C0.0350
; #@! TA.AperFunction,Plated,PTH,ComponentDrill
T4C0.0394
; #@! TA.AperFunction,Plated,PTH,ComponentDrill
T5C0.0591
%
G90
G05
T1
X7.1811Y-5.0551
X7.1929Y-3.5276
X7.3346Y-3.5984
X7.378Y-4.5079
X7.4803Y-4.2992
X7.7677Y-4.1063
X7.8268Y-4.374
X7.9843Y-4.2087
X8.0512Y-4.0472
X8.5787Y-3.6299
X8.6929Y-3.5984
X8.6969Y-3.5551
X8.7323Y-4.7992
X8.752Y-3.3661
X8.7638Y-4.9646
X8.7953Y-4.1142
X8.8386Y-3.3583
X8.8425Y-3.0551
X8.9488Y-3.0197
T2
X7.5118Y-3.0311
X7.5118Y-3.3311
X7.5118Y-3.7811
X7.5118Y-4.0811
X7.5118Y-4.5311
X7.5118Y-4.8311
X7.512Y-5.2811
X7.512Y-5.5811
X8.2618Y-3.0311
X8.2618Y-3.3311
X8.2618Y-3.7811
X8.2618Y-4.0811
X8.2618Y-4.5311
X8.2618Y-4.8311
X8.262Y-5.2811
X8.262Y-5.5811
X9.0118Y-3.0311
X9.0118Y-3.3311
X9.0118Y-3.7811
X9.0118Y-4.0811
X9.0118Y-4.5311
X9.0118Y-4.8311
X9.012Y-5.2811
X9.012Y-5.5811
T3
X8.3715Y-1.9844
X8.3715Y-2.0844
X8.3715Y-2.1844
X8.3715Y-2.2844
X8.3715Y-2.3844
X8.3715Y-2.4844
X8.3715Y-2.5844
X8.9715Y-1.9844
X8.9715Y-2.0844
X8.9715Y-2.1844
X8.9715Y-2.2844
X8.9715Y-2.3844
X8.9715Y-2.4844
X8.9715Y-2.5844
T4
X6.8789Y-2.4167
X6.8789Y-2.5167
X6.8789Y-2.6167
X6.8789Y-2.7167
T5
X7.0459Y-3.0811
X7.0459Y-3.8311
X7.0459Y-4.5811
X7.046Y-5.3311
X7.2959Y-2.9811
X7.2959Y-3.7311
X7.2959Y-4.4811
X7.296Y-5.2311
X7.7959Y-3.0811
X7.7959Y-3.8311
X7.7959Y-4.5811
X7.796Y-5.3311
X8.0459Y-2.9811
X8.0459Y-3.7311
X8.0459Y-4.4811
X8.046Y-5.2311
X8.5459Y-3.0811
X8.5459Y-3.8311
X8.5459Y-4.5811
X8.546Y-5.3311
X8.7959Y-2.9811
X8.7959Y-3.7311
X8.7959Y-4.4811
X8.796Y-5.2311
M30
