%TF.GenerationSoftware,KiCad,Pcbnew,9.0.6*%
%TF.CreationDate,2026-01-12T21:07:24-05:00*%
%TF.ProjectId,BioPad,42696f50-6164-42e6-9b69-6361645f7063,rev?*%
%TF.SameCoordinates,Original*%
%TF.FileFunction,Copper,L1,Top*%
%TF.FilePolarity,Positive*%
%FSLAX46Y46*%
G04 Gerber Fmt 4.6, Leading zero omitted, Abs format (unit mm)*
G04 Created by KiCad (PCBNEW 9.0.6) date 2026-01-12 21:07:24*
%MOMM*%
%LPD*%
G01*
G04 APERTURE LIST*
G04 Aperture macros list*
%AMRoundRect*
0 Rectangle with rounded corners*
0 $1 Rounding radius*
0 $2 $3 $4 $5 $6 $7 $8 $9 X,Y pos of 4 corners*
0 Add a 4 corners polygon primitive as box body*
4,1,4,$2,$3,$4,$5,$6,$7,$8,$9,$2,$3,0*
0 Add four circle primitives for the rounded corners*
1,1,$1+$1,$2,$3*
1,1,$1+$1,$4,$5*
1,1,$1+$1,$6,$7*
1,1,$1+$1,$8,$9*
0 Add four rect primitives between the rounded corners*
20,1,$1+$1,$2,$3,$4,$5,0*
20,1,$1+$1,$4,$5,$6,$7,0*
20,1,$1+$1,$6,$7,$8,$9,0*
20,1,$1+$1,$8,$9,$2,$3,0*%
G04 Aperture macros list end*
%TA.AperFunction,ComponentPad*%
%ADD10C,2.200000*%
%TD*%
%TA.AperFunction,SMDPad,CuDef*%
%ADD11R,1.600000X0.850000*%
%TD*%
%TA.AperFunction,SMDPad,CuDef*%
%ADD12RoundRect,0.152400X1.063600X0.609600X-1.063600X0.609600X-1.063600X-0.609600X1.063600X-0.609600X0*%
%TD*%
%TA.AperFunction,ComponentPad*%
%ADD13C,1.524000*%
%TD*%
%TA.AperFunction,SMDPad,CuDef*%
%ADD14RoundRect,0.152400X-1.063600X-0.609600X1.063600X-0.609600X1.063600X0.609600X-1.063600X0.609600X0*%
%TD*%
%TA.AperFunction,ComponentPad*%
%ADD15R,1.700000X1.700000*%
%TD*%
%TA.AperFunction,ComponentPad*%
%ADD16O,1.700000X1.700000*%
%TD*%
%TA.AperFunction,ComponentPad*%
%ADD17RoundRect,0.250000X0.550000X-0.550000X0.550000X0.550000X-0.550000X0.550000X-0.550000X-0.550000X0*%
%TD*%
%TA.AperFunction,ComponentPad*%
%ADD18C,1.600000*%
%TD*%
%TA.AperFunction,ViaPad*%
%ADD19C,0.600000*%
%TD*%
%TA.AperFunction,Conductor*%
%ADD20C,0.200000*%
%TD*%
G04 APERTURE END LIST*
D10*
%TO.P,SW2,1,1*%
%TO.N,Net-(D10-A)*%
X185315000Y-94770000D03*
%TO.P,SW2,2,2*%
%TO.N,Col_1*%
X178965000Y-97310000D03*
%TD*%
%TO.P,SW1,1,1*%
%TO.N,Net-(D11-A)*%
X185315000Y-75720000D03*
%TO.P,SW1,2,2*%
%TO.N,Col_1*%
X178965000Y-78260000D03*
%TD*%
D11*
%TO.P,D16,1,DOUT*%
%TO.N,Net-(D16-DOUT)*%
X181029000Y-127550000D03*
%TO.P,D16,2,VSS*%
%TO.N,GND*%
X181029000Y-129300000D03*
%TO.P,D16,3,DIN*%
%TO.N,Net-(D15-DOUT)*%
X184529000Y-129300000D03*
%TO.P,D16,4,VDD*%
%TO.N,+5V*%
X184529000Y-127550000D03*
%TD*%
%TO.P,D17,1,DOUT*%
%TO.N,unconnected-(D17-DOUT-Pad1)*%
X219129000Y-127550000D03*
%TO.P,D17,2,VSS*%
%TO.N,GND*%
X219129000Y-129300000D03*
%TO.P,D17,3,DIN*%
%TO.N,Net-(D16-DOUT)*%
X222629000Y-129300000D03*
%TO.P,D17,4,VDD*%
%TO.N,+5V*%
X222629000Y-127550000D03*
%TD*%
%TO.P,D14,1,DOUT*%
%TO.N,Net-(D14-DOUT)*%
X184524999Y-91200000D03*
%TO.P,D14,2,VSS*%
%TO.N,GND*%
X184524999Y-89450000D03*
%TO.P,D14,3,DIN*%
%TO.N,Net-(D1-DOUT)*%
X181025001Y-89450000D03*
%TO.P,D14,4,VDD*%
%TO.N,+5V*%
X181025001Y-91200000D03*
%TD*%
%TO.P,D15,1,DOUT*%
%TO.N,Net-(D15-DOUT)*%
X200075000Y-108500000D03*
%TO.P,D15,2,VSS*%
%TO.N,GND*%
X200075000Y-110250000D03*
%TO.P,D15,3,DIN*%
%TO.N,Net-(D14-DOUT)*%
X203575000Y-110250000D03*
%TO.P,D15,4,VDD*%
%TO.N,+5V*%
X203575000Y-108500000D03*
%TD*%
%TO.P,D1,1,DOUT*%
%TO.N,Net-(D1-DOUT)*%
X219125000Y-89450000D03*
%TO.P,D1,2,VSS*%
%TO.N,GND*%
X219125000Y-91200000D03*
%TO.P,D1,3,DIN*%
%TO.N,NeoPixel_Input*%
X222625000Y-91200000D03*
%TO.P,D1,4,VDD*%
%TO.N,+5V*%
X222625000Y-89450000D03*
%TD*%
D10*
%TO.P,SW10,1,1*%
%TO.N,Net-(D8-A)*%
X223415000Y-94770000D03*
%TO.P,SW10,2,2*%
%TO.N,Col_3*%
X217065000Y-97310000D03*
%TD*%
D12*
%TO.P,U1,1,GPIO26/ADC0/A0*%
%TO.N,Col_1*%
X211800000Y-50405000D03*
D13*
X212635000Y-50405000D03*
D12*
%TO.P,U1,2,GPIO27/ADC1/A1*%
%TO.N,Col_2*%
X211800000Y-52945000D03*
D13*
X212635000Y-52945000D03*
D12*
%TO.P,U1,3,GPIO28/ADC2/A2*%
%TO.N,Col_3*%
X211800000Y-55485000D03*
D13*
X212635000Y-55485000D03*
D12*
%TO.P,U1,4,GPIO29/ADC3/A3*%
%TO.N,Row_1*%
X211800000Y-58025000D03*
D13*
X212635000Y-58025000D03*
D12*
%TO.P,U1,5,GPIO6/SDA*%
%TO.N,SDA*%
X211800000Y-60565000D03*
D13*
X212635000Y-60565000D03*
D12*
%TO.P,U1,6,GPIO7/SCL*%
%TO.N,SCL*%
X211800000Y-63105000D03*
D13*
X212635000Y-63105000D03*
D12*
%TO.P,U1,7,GPIO0/TX*%
%TO.N,Row_4*%
X211800000Y-65645000D03*
D13*
X212635000Y-65645000D03*
%TO.P,U1,8,GPIO1/RX*%
%TO.N,unconnected-(U1-GPIO1{slash}RX-Pad8)*%
X227875000Y-65645000D03*
D14*
X228710000Y-65645000D03*
D13*
%TO.P,U1,9,GPIO2/SCK*%
%TO.N,Row_3*%
X227875000Y-63105000D03*
D14*
X228710000Y-63105000D03*
D13*
%TO.P,U1,10,GPIO4/MISO*%
%TO.N,Row_2*%
X227875000Y-60565000D03*
D14*
X228710000Y-60565000D03*
D13*
%TO.P,U1,11,GPIO3/MOSI*%
%TO.N,NeoPixel_Input*%
X227875000Y-58025000D03*
D14*
X228710000Y-58025000D03*
D13*
%TO.P,U1,12,3V3*%
%TO.N,unconnected-(U1-3V3-Pad12)*%
X227875000Y-55485000D03*
D14*
X228710000Y-55485000D03*
D13*
%TO.P,U1,13,GND*%
%TO.N,GND*%
X227875000Y-52945000D03*
D14*
X228710000Y-52945000D03*
D13*
%TO.P,U1,14,VBUS*%
%TO.N,+5V*%
X227875000Y-50405000D03*
D14*
X228710000Y-50405000D03*
%TD*%
D10*
%TO.P,SW11,1,1*%
%TO.N,Net-(D7-A)*%
X223415000Y-113820000D03*
%TO.P,SW11,2,2*%
%TO.N,Col_3*%
X217065000Y-116360000D03*
%TD*%
D15*
%TO.P,J1,1,Pin_1*%
%TO.N,GND*%
X174725000Y-69005000D03*
D16*
%TO.P,J1,2,Pin_2*%
%TO.N,+5V*%
X174725000Y-66464999D03*
%TO.P,J1,3,Pin_3*%
%TO.N,SCL*%
X174725000Y-63925000D03*
%TO.P,J1,4,Pin_4*%
%TO.N,SDA*%
X174725000Y-61385000D03*
%TD*%
D10*
%TO.P,SW9,1,1*%
%TO.N,Net-(D13-A)*%
X223415000Y-75720000D03*
%TO.P,SW9,2,2*%
%TO.N,Col_3*%
X217065000Y-78260000D03*
%TD*%
%TO.P,SW6,1,1*%
%TO.N,Net-(D9-A)*%
X204365000Y-94770000D03*
%TO.P,SW6,2,2*%
%TO.N,Col_2*%
X198015000Y-97310000D03*
%TD*%
%TO.P,SW8,1,1*%
%TO.N,Net-(D3-A)*%
X204369000Y-132870000D03*
%TO.P,SW8,2,2*%
%TO.N,Col_2*%
X198019000Y-135410000D03*
%TD*%
%TO.P,SW12,1,1*%
%TO.N,Net-(D2-A)*%
X223419000Y-132870000D03*
%TO.P,SW12,2,2*%
%TO.N,Col_3*%
X217069000Y-135410000D03*
%TD*%
%TO.P,SW7,1,1*%
%TO.N,Net-(D6-A)*%
X204365000Y-113820000D03*
%TO.P,SW7,2,2*%
%TO.N,Col_2*%
X198015000Y-116360000D03*
%TD*%
%TO.P,SW5,1,1*%
%TO.N,Net-(D12-A)*%
X204365000Y-75720000D03*
%TO.P,SW5,2,2*%
%TO.N,Col_2*%
X198015000Y-78260000D03*
%TD*%
%TO.P,SW4,1,1*%
%TO.N,Net-(D4-A)*%
X185319000Y-132870000D03*
%TO.P,SW4,2,2*%
%TO.N,Col_1*%
X178969000Y-135410000D03*
%TD*%
%TO.P,SW3,1,1*%
%TO.N,Net-(D5-A)*%
X185315000Y-113820000D03*
%TO.P,SW3,2,2*%
%TO.N,Col_1*%
X178965000Y-116360000D03*
%TD*%
D17*
%TO.P,D7,1,K*%
%TO.N,Row_3*%
X228900000Y-122710000D03*
D18*
%TO.P,D7,2,A*%
%TO.N,Net-(D7-A)*%
X228900000Y-115090000D03*
%TD*%
D17*
%TO.P,D6,1,K*%
%TO.N,Row_3*%
X209850000Y-122710000D03*
D18*
%TO.P,D6,2,A*%
%TO.N,Net-(D6-A)*%
X209850000Y-115090000D03*
%TD*%
D17*
%TO.P,D4,1,K*%
%TO.N,Row_4*%
X190804000Y-141760000D03*
D18*
%TO.P,D4,2,A*%
%TO.N,Net-(D4-A)*%
X190804000Y-134140000D03*
%TD*%
D17*
%TO.P,D9,1,K*%
%TO.N,Row_2*%
X209850000Y-103660000D03*
D18*
%TO.P,D9,2,A*%
%TO.N,Net-(D9-A)*%
X209850000Y-96040000D03*
%TD*%
D17*
%TO.P,D10,1,K*%
%TO.N,Row_2*%
X190800000Y-103660000D03*
D18*
%TO.P,D10,2,A*%
%TO.N,Net-(D10-A)*%
X190800000Y-96040000D03*
%TD*%
D17*
%TO.P,D5,1,K*%
%TO.N,Row_3*%
X190800000Y-122710000D03*
D18*
%TO.P,D5,2,A*%
%TO.N,Net-(D5-A)*%
X190800000Y-115090000D03*
%TD*%
D17*
%TO.P,D3,1,K*%
%TO.N,Row_4*%
X209854000Y-141760000D03*
D18*
%TO.P,D3,2,A*%
%TO.N,Net-(D3-A)*%
X209854000Y-134140000D03*
%TD*%
D17*
%TO.P,D2,1,K*%
%TO.N,Row_4*%
X228904000Y-141760000D03*
D18*
%TO.P,D2,2,A*%
%TO.N,Net-(D2-A)*%
X228904000Y-134140000D03*
%TD*%
D17*
%TO.P,D13,1,K*%
%TO.N,Row_1*%
X228900000Y-84610000D03*
D18*
%TO.P,D13,2,A*%
%TO.N,Net-(D13-A)*%
X228900000Y-76990000D03*
%TD*%
D17*
%TO.P,D8,1,K*%
%TO.N,Row_2*%
X228900000Y-103660000D03*
D18*
%TO.P,D8,2,A*%
%TO.N,Net-(D8-A)*%
X228900000Y-96040000D03*
%TD*%
D17*
%TO.P,D11,1,K*%
%TO.N,Row_1*%
X190800000Y-84610000D03*
D18*
%TO.P,D11,2,A*%
%TO.N,Net-(D11-A)*%
X190800000Y-76990000D03*
%TD*%
D17*
%TO.P,D12,1,K*%
%TO.N,Row_1*%
X209850000Y-84610000D03*
D18*
%TO.P,D12,2,A*%
%TO.N,Net-(D12-A)*%
X209850000Y-76990000D03*
%TD*%
D19*
%TO.N,GND*%
X190000000Y-109200000D03*
X182700000Y-89600000D03*
X182400000Y-128400000D03*
X187400000Y-114500000D03*
%TO.N,+5V*%
X198800000Y-111100000D03*
X221800000Y-121900000D03*
X222600000Y-126100000D03*
X217900000Y-92200000D03*
X220900000Y-90300000D03*
X204500000Y-102800000D03*
X202800000Y-106900000D03*
%TO.N,NeoPixel_Input*%
X224600000Y-77600000D03*
X224500000Y-85300000D03*
%TO.N,Row_3*%
X223400000Y-104500000D03*
X222300000Y-85500000D03*
X220800000Y-91400000D03*
%TO.N,Row_2*%
X227300000Y-76700000D03*
%TO.N,Net-(D14-DOUT)*%
X186300000Y-91400000D03*
X197300000Y-104300000D03*
%TD*%
D20*
%TO.N,Net-(D1-DOUT)*%
X182075001Y-88400000D02*
X181025001Y-89450000D01*
X219125000Y-89450000D02*
X187550000Y-89450000D01*
X187550000Y-89450000D02*
X186500000Y-88400000D01*
X186500000Y-88400000D02*
X182075001Y-88400000D01*
%TO.N,GND*%
X181029000Y-129300000D02*
X181500000Y-129300000D01*
X219125000Y-91200000D02*
X218700000Y-91200000D01*
X191650000Y-110250000D02*
X200075000Y-110250000D01*
X176900000Y-90300000D02*
X183674999Y-90300000D01*
X184374999Y-89600000D02*
X184524999Y-89450000D01*
X217400000Y-89900000D02*
X184974999Y-89900000D01*
X190600000Y-109200000D02*
X190000000Y-109200000D01*
X181500000Y-129300000D02*
X182400000Y-128400000D01*
X184974999Y-89900000D02*
X184524999Y-89450000D01*
X191650000Y-110250000D02*
X190600000Y-109200000D01*
X187200000Y-129300000D02*
X185800000Y-130700000D01*
X182700000Y-89600000D02*
X184374999Y-89600000D01*
X174725000Y-69005000D02*
X174725000Y-88125000D01*
X185800000Y-130700000D02*
X182429000Y-130700000D01*
X183674999Y-90300000D02*
X184524999Y-89450000D01*
X182429000Y-130700000D02*
X181029000Y-129300000D01*
X219129000Y-129300000D02*
X187200000Y-129300000D01*
X218700000Y-91200000D02*
X217400000Y-89900000D01*
X187400000Y-114500000D02*
X191650000Y-110250000D01*
X174725000Y-88125000D02*
X176900000Y-90300000D01*
%TO.N,+5V*%
X174725000Y-66464999D02*
X173500000Y-67689999D01*
X176300000Y-91200000D02*
X181025001Y-91200000D01*
X203400000Y-106900000D02*
X203575000Y-107075000D01*
X220900000Y-90300000D02*
X221775000Y-90300000D01*
X221775000Y-90300000D02*
X222625000Y-89450000D01*
X222600000Y-126100000D02*
X222600000Y-127521000D01*
X187000000Y-91700000D02*
X188200000Y-90500000D01*
X173500000Y-88400000D02*
X176300000Y-91200000D01*
X194200000Y-90500000D02*
X216200000Y-90500000D01*
X217300000Y-118700000D02*
X220500000Y-121900000D01*
X204000000Y-97200000D02*
X204500000Y-97700000D01*
X204500000Y-97700000D02*
X204500000Y-102800000D01*
X202800000Y-106900000D02*
X203400000Y-106900000D01*
X182600000Y-91200000D02*
X183700000Y-92300000D01*
X186000000Y-117300000D02*
X192200000Y-111100000D01*
X186400000Y-92300000D02*
X187000000Y-91700000D01*
X210000000Y-113900000D02*
X212500000Y-113900000D01*
X203575000Y-107075000D02*
X203575000Y-108500000D01*
X208975000Y-113900000D02*
X210000000Y-113900000D01*
X186000000Y-126079000D02*
X186000000Y-117300000D01*
X203575000Y-108500000D02*
X208975000Y-113900000D01*
X220500000Y-121900000D02*
X221800000Y-121900000D01*
X183700000Y-92300000D02*
X186400000Y-92300000D01*
X192200000Y-111100000D02*
X192900000Y-111100000D01*
X181025001Y-91200000D02*
X182600000Y-91200000D01*
X192900000Y-111100000D02*
X198800000Y-111100000D01*
X188200000Y-90500000D02*
X194200000Y-90500000D01*
X222600000Y-127521000D02*
X222629000Y-127550000D01*
X194200000Y-90500000D02*
X200900000Y-97200000D01*
X173500000Y-67689999D02*
X173500000Y-88400000D01*
X222625000Y-89450000D02*
X222900000Y-89450000D01*
X212500000Y-113900000D02*
X217300000Y-118700000D01*
X216200000Y-90500000D02*
X217900000Y-92200000D01*
X174725000Y-66464999D02*
X174725000Y-65855000D01*
X184529000Y-127550000D02*
X186000000Y-126079000D01*
X200900000Y-97200000D02*
X204000000Y-97200000D01*
%TO.N,NeoPixel_Input*%
X225500000Y-76700000D02*
X225500000Y-60400000D01*
X223400000Y-91200000D02*
X224500000Y-90100000D01*
X225500000Y-60400000D02*
X227875000Y-58025000D01*
X224500000Y-90100000D02*
X224500000Y-85300000D01*
X222625000Y-91200000D02*
X223400000Y-91200000D01*
X224600000Y-77600000D02*
X225500000Y-76700000D01*
%TO.N,Row_4*%
X209854000Y-141760000D02*
X190804000Y-141760000D01*
X228904000Y-141760000D02*
X209854000Y-141760000D01*
%TO.N,Row_3*%
X220800000Y-91400000D02*
X220800000Y-91100000D01*
X220500000Y-87300000D02*
X222300000Y-85500000D01*
X220300000Y-87600000D02*
X220500000Y-87400000D01*
X220500000Y-87400000D02*
X220500000Y-87300000D01*
X228900000Y-118400000D02*
X225700000Y-115200000D01*
X190800000Y-122710000D02*
X209850000Y-122710000D01*
X209850000Y-122710000D02*
X228900000Y-122710000D01*
X225700000Y-115200000D02*
X225700000Y-106800000D01*
X220300000Y-90600000D02*
X220300000Y-87600000D01*
X228900000Y-122710000D02*
X228900000Y-118400000D01*
X220800000Y-91100000D02*
X220300000Y-90600000D01*
X225700000Y-106800000D02*
X223400000Y-104500000D01*
%TO.N,Row_2*%
X227300000Y-67200000D02*
X226500000Y-66400000D01*
X209850000Y-103660000D02*
X228900000Y-103660000D01*
X227300000Y-76700000D02*
X227300000Y-67200000D01*
X190800000Y-103660000D02*
X209850000Y-103660000D01*
X226500000Y-61940000D02*
X227875000Y-60565000D01*
X226500000Y-66400000D02*
X226500000Y-61940000D01*
X227875000Y-60565000D02*
X228710000Y-60565000D01*
%TO.N,Row_1*%
X209850000Y-84610000D02*
X228900000Y-84610000D01*
X190800000Y-84610000D02*
X209850000Y-84610000D01*
%TO.N,Net-(D14-DOUT)*%
X200500000Y-107500000D02*
X200800000Y-107500000D01*
X186100000Y-91200000D02*
X186300000Y-91400000D01*
X200800000Y-107500000D02*
X203550000Y-110250000D01*
X203550000Y-110250000D02*
X203575000Y-110250000D01*
X184524999Y-91200000D02*
X186100000Y-91200000D01*
X197300000Y-104300000D02*
X200500000Y-107500000D01*
%TO.N,Net-(D15-DOUT)*%
X199325000Y-108100000D02*
X199950000Y-108100000D01*
X179900000Y-124400000D02*
X183100000Y-127600000D01*
X183600000Y-114200000D02*
X179900000Y-117900000D01*
X183400000Y-129300000D02*
X184529000Y-129300000D01*
X200075000Y-108500000D02*
X187100000Y-108500000D01*
X183100000Y-129000000D02*
X183400000Y-129300000D01*
X183600000Y-112000000D02*
X183600000Y-114200000D01*
X183100000Y-127600000D02*
X183100000Y-129000000D01*
X187100000Y-108500000D02*
X183600000Y-112000000D01*
X179900000Y-117900000D02*
X179900000Y-124400000D01*
%TO.N,SDA*%
X174725000Y-61385000D02*
X210980000Y-61385000D01*
X210980000Y-61385000D02*
X211800000Y-60565000D01*
%TO.N,SCL*%
X211800000Y-63105000D02*
X175545000Y-63105000D01*
X175545000Y-63105000D02*
X174725000Y-63925000D01*
%TO.N,Net-(D16-DOUT)*%
X180550000Y-127550000D02*
X179300000Y-128800000D01*
X179300000Y-129900000D02*
X180600000Y-131200000D01*
X220729000Y-131200000D02*
X222629000Y-129300000D01*
X179300000Y-128800000D02*
X179300000Y-129900000D01*
X181029000Y-127550000D02*
X180550000Y-127550000D01*
X180600000Y-131200000D02*
X220729000Y-131200000D01*
%TO.N,Col_1*%
X186305000Y-50405000D02*
X186300000Y-50400000D01*
%TD*%
M02*
